<svg width="29" height="24" viewBox="0 0 29 24" fill="none" xmlns="http://www.w3.org/2000/svg">
<g id="Group">
<path id="Vector" d="M22.3112 4.78785L20.7882 8.94171H7.54322C5.59005 8.94171 4.18295 10.8156 4.72773 12.6912L5.32453 14.746L3.67872 14.5201L3.67873 14.52L3.67083 14.519C2.82917 14.4125 2.1491 13.7809 1.98093 12.9492L0.80987 7.15697C0.80987 7.15696 0.80987 7.15696 0.809869 7.15696C0.562277 5.93229 1.4985 4.78785 2.74793 4.78785H22.2231H22.3112Z" stroke="#111111" stroke-width="1.5"/>
<path id="Vector_2" d="M19.8382 11.5326L18.1973 16.0081L18.0208 16.4894L8.13457 15.1319L7.2158 11.9686L7.2158 11.9686C7.15245 11.7505 7.31606 11.5326 7.54319 11.5326H19.8382ZM18.7099 20.3962L19.1242 21.1126C19.2456 21.3226 19.3153 21.5661 19.3153 21.828C19.3153 22.6188 18.6743 23.2599 17.8835 23.2599C17.0928 23.2599 16.4517 22.6188 16.4517 21.828C16.4517 21.5661 16.5214 21.3226 16.6428 21.1126L17.0571 20.3962H18.7099ZM3.72766 20.3962H4.55411L4.96834 21.1126C5.08978 21.3226 5.15947 21.5661 5.15947 21.828C5.15947 22.6188 4.51841 23.2599 3.72766 23.2599C2.9369 23.2599 2.29584 22.6188 2.29584 21.828C2.29584 21.0373 2.93688 20.3962 3.72766 20.3962Z" stroke="#111111" stroke-width="1.5"/>
</g>
</svg>
